Coordinates
version=1
nRows=9
nColumns=36
inDegrees=yes

Units are S.I. units (second, meters, Newtons, ...)
If the header above contains a line with 'inDegrees', this indicates whether rotational values are in degrees (yes) or radians (no).

endheader
time	pelvis_tilt	pelvis_list	pelvis_rotation	pelvis_tx	pelvis_ty	pelvis_tz	hip_flexion_r	hip_adduction_r	hip_rotation_r	knee_angle_r	knee_angle_r_beta	ankle_angle_r	subtalar_angle_r	mtp_angle_r	hip_flexion_l	hip_adduction_l	hip_rotation_l	knee_angle_l	knee_angle_l_beta	ankle_angle_l	subtalar_angle_l	mtp_angle_l	lumbar_extension	lumbar_bending	lumbar_rotation	arm_flex_r	arm_add_r	arm_rot_r	elbow_flex_r	pro_sup_r	arm_flex_l	arm_add_l	arm_rot_l	elbow_flex_l	pro_sup_l
      2.93333330	     -9.28909185	      0.99387625	      0.72165301	      0.76709368	      1.40617583	     -0.04698186	     15.10617774	     -5.03460040	     -4.76722321	     12.73605685	      0.22228613	    -17.41660955	     -5.31730351	     -7.49999987	     11.37411017	     -5.32500096	     -6.35092466	     10.04719072	      0.17535656	    -12.51464831	      2.52059405	     -7.49999987	     -9.58672569	     -0.80898699	    -12.14922825	     -9.22099590	    -30.09514357	     26.81747620	     48.46652953	     86.50148556	    -38.44746220	    -24.06724011	     17.94207737	     53.06796570	     83.67111187
      2.95000000	     -9.59679844	      1.29301133	      0.67327796	      0.78445454	      1.37793963	     -0.04098651	     17.09021562	     -5.71042695	     -4.81586079	     10.50031146	      0.18326501	    -17.95591068	     -4.13508547	     -7.49999987	     13.60457518	     -5.42656919	     -6.04361175	      8.90903830	      0.15549205	    -13.41303490	      2.09464598	     -7.49999987	    -10.45616650	     -1.33368476	     -9.72616766	    -13.11074982	    -30.10269675	     25.12809339	     49.99427054	     82.84202019	    -37.07498177	    -26.29607411	     24.38850689	     53.51225886	     78.12711912
      2.96666670	     -9.45542014	      1.25241594	      0.47196586	      0.81675991	      1.34795027	     -0.03623578	     18.05631528	     -5.91339492	     -5.67005415	      8.67326878	      0.15137710	    -18.04885886	     -2.73627758	     -7.49999987	     14.78835390	     -5.93249418	     -5.80438172	      7.41300857	      0.12938141	    -13.96537755	      1.83536531	     -7.49999987	    -11.01621955	     -1.73715945	     -9.08783396	    -14.34981869	    -30.57267133	     26.43175639	     50.65479501	     82.86764647	    -38.14911598	    -26.61049829	     25.89005793	     54.29908331	     77.69191825
      2.98333330	     -9.42537744	      1.25623409	      0.73144660	      0.83946856	      1.31198487	     -0.03928680	     19.26390877	     -6.37047339	     -6.51543134	      6.84187952	      0.11941332	    -18.41927832	     -1.81544362	     -7.49999987	     16.55535380	     -6.29663910	     -5.45351969	      6.36070834	      0.11101530	    -13.87471202	      1.59669885	     -7.49999987	    -11.27916962	     -2.12308670	     -8.58781833	    -15.81386944	    -30.75573236	     27.22546008	     50.86763644	     82.65782100	    -38.85368997	    -26.98598069	     27.08570456	     54.53875853	     77.29703072
      3.00000000	     -9.55265416	      1.36950405	      0.98386279	      0.85985841	      1.27353883	     -0.04057230	     21.16897819	     -7.03356131	     -7.10864919	      6.08220494	      0.10615450	    -18.34740558	     -1.24046944	     -7.49999987	     18.92047282	     -6.27387556	     -4.36092977	      6.27618015	      0.10954001	    -13.87228261	      0.65758751	     -7.49999987	    -12.13157219	     -2.34456270	     -8.10277622	    -17.23212502	    -30.71452064	     27.95665563	     50.93782213	     81.97775187	    -38.56717887	    -27.59891779	     28.43699787	     54.79723930	     76.58163117
      3.01666670	     -9.58545841	      1.53127690	      0.90478868	      0.87544514	      1.22760909	     -0.03939597	     23.50385643	     -7.69639961	     -7.90682107	      6.30213133	      0.10999294	    -17.99115065	     -0.72559279	     -7.49999987	     20.94275476	     -6.21839990	     -3.23520057	      6.70957424	      0.11710416	    -13.86968379	     -0.65026113	     -7.49999987	    -13.02663620	     -2.56332805	     -6.60685722	    -18.90479493	    -30.87552182	     28.07188864	     52.08514186	     75.75156770	    -36.53003986	    -29.54511926	     33.71824766	     55.51837130	     68.03658983
      3.03333330	     -9.68522068	      1.55845150	      0.98818060	      0.88801058	      1.17909033	     -0.03150705	     26.02409613	     -8.06341155	     -8.83047734	      6.97841640	      0.12179634	    -18.10572134	     -0.49585880	     -7.49999987	     23.83611750	     -6.24944441	     -2.43341844	      8.26547137	      0.14425969	    -14.39289171	     -2.69210030	     -7.49999987	    -13.81887467	     -2.85798267	     -6.47715812	    -18.80633332	    -31.12375028	     28.97878969	     52.72612948	     75.53506648	    -36.09686122	    -30.23690675	     33.79705541	     56.56385021	     67.64828450
      3.05000000	     -9.44496798	      1.35295870	      1.02909421	      0.91522096	      1.13224153	     -0.02526544	     27.75287726	     -8.04383453	     -9.85534460	      8.32787494	      0.14534884	    -18.27922619	     -0.05807552	     -7.49999987	     25.57609608	     -6.53783791	     -2.08386833	      9.13410086	      0.15942013	    -14.97505234	     -3.93429468	     -7.49999987	    -14.41723174	     -3.00067331	     -6.45333387	    -18.60267233	    -31.49877181	     29.82984463	     53.66928574	     75.21593230	    -36.13695795	    -30.98170374	     33.84110653	     57.91512373	     67.13728918
      3.06666670	     -9.04498758	      1.30491895	      0.70383363	      0.94018533	      1.08533928	     -0.03468230	     29.80540280	     -8.38238825	    -10.00873417	     10.94108139	      0.19095789	    -16.94807182	     -0.31734941	     -7.49999987	     27.49568439	     -6.63871974	     -2.11063990	     12.08818166	      0.21097857	    -13.24661563	     -4.68624257	     -7.49999987	    -15.74813215	     -2.95315846	     -6.14922674	    -17.90990690	    -32.00145800	     29.62745231	     54.37330905	     74.53067902	    -35.59143560	    -31.16789730	     33.68170680	     58.52270528	     66.77804142
